# xmcd CD database file
#
# Track frame offsets:
#	150
#	21263
#	36990
#	66507
#	332550
#
# Disc length: 4440 seconds
#
# Revision: 0
# Processed by: cddbd v1.5.1PL0 Copyright (c) Steve Scherf et al.
# Submitted via: CDex 1.51
#
DISCID=44115605
DTITLE=ザ・マスミサイル - 今まで何度も
DYEAR=2004
DGENRE=Rock
TTITLE0=今まで何度も
TTITLE1=俺の一大事〜ロック de ボン〜
TTITLE2=なるほど
TTITLE3=レーベルゲート データ01
TTITLE4=レーベルゲート データ02
EXTD=YEAR: 2004
EXTT0=
EXTT1=
EXTT2=
EXTT3=
EXTT4=
PLAYORDER=
